<svg version="1.1" xmlns="http://www.w3.org/2000/svg" xmlns:xlink="http://www.w3.org/1999/xlink" width="141" height="264.85493" viewBox="0,0,141,264.85493"><g transform="translate(-107.5,-39)"><g data-paper-data="{&quot;isPaintingLayer&quot;:true}" fill-rule="nonzero" stroke-linejoin="miter" stroke-miterlimit="10" stroke-dasharray="" stroke-dashoffset="0" style="mix-blend-mode: normal"><path d="M107.5,130v-41h11v41z" fill="#8f98ad" stroke="none" stroke-width="0" stroke-linecap="butt"/><path d="M110.5,247v-41h11v41z" fill="#8f98ad" stroke="none" stroke-width="0" stroke-linecap="butt"/><path d="M235.5,246v-41h11v41z" fill="#8f98ad" stroke="none" stroke-width="0" stroke-linecap="butt"/><path d="M237.5,129v-41h11v41z" fill="#8f98ad" stroke="none" stroke-width="0" stroke-linecap="butt"/><path d="M110.5,70c0,-7.59961 15,-29 15,-29l101,-2c0,0 19,18.43099 19,27c0,15.43898 -5.83283,66.05855 -4.52805,118.94015c-16.15586,-0.04265 -28.81639,0.99755 -42.16293,0.99755c-2.95762,0 -6.04988,0.98525 -9.05012,1.06231c-1.90066,0.04881 -3.8058,0.12884 -5.71465,0.22687c-1.37825,-2.22687 -4.29424,-2.22687 -4.29424,-2.22687h-1c-6.07482,0 -12.45118,-0.56675 -18.49269,0.02434c-3.21384,0.31444 -6.24566,1.29544 -9.34263,2.03543c-0.40328,-0.05977 -0.66468,-0.05977 -0.66468,-0.05977c-1,0 -4,0 -5,0c0,0 -0.85718,0 -1.86171,0.35491c-5.53912,-0.82341 -10.05358,-1.59073 -16.13829,-1.35491c-1.54174,0.05975 -3.21916,0.9847 -4.73105,1c-1.94141,0.01964 -0.96119,-0.37591 -4.85999,0.00041c-0.28281,0.00252 -0.56282,0.01678 -0.83956,0.04233c-0.43307,-51.95311 -6.3194,-102.40186 -6.3194,-117.04273z" fill="#6693ff" stroke="none" stroke-width="0" stroke-linecap="butt"/><path d="M117.3194,180.26063c0.27674,0.02132 -5.44325,0.03323 -5.16044,0.03534c3.8988,0.31417 8.41858,-0.01606 10.35999,0.00034c1.51189,0.01277 3.18931,0.78497 4.73105,0.83486c6.08471,0.19688 10.59918,-0.44373 16.1383,-1.13115c1.00453,0.2963 1.86171,0.2963 1.86171,0.2963c1,0 4,0 5,0c0,0 0.2614,0 0.66468,-0.0499c3.09697,0.61779 6.12879,1.43679 9.34263,1.69929c6.04152,0.49347 12.41788,0.02032 18.49269,0.02032h1c0,0 2.91599,0 4.29424,-1.85911c1.90885,0.08184 3.814,0.14865 5.71465,0.1894c3.00024,0.06433 6.0925,0.88687 9.05012,0.88687c13.34654,0 26.00708,0.03357 42.16294,-0.00205c-1.30478,44.14849 4.52805,87.24337 4.52805,100.13269c0,7.15388 -19,22.5411 -19,22.5411l-101,-1.66971c0,0 -15,-17.86623 -15,-24.21081c0,-12.22301 6.38633,-54.34043 6.8194,-97.71376z" data-paper-data="{&quot;index&quot;:null}" fill="#6693ff" stroke="none" stroke-width="0" stroke-linecap="butt"/><path d="M110.75144,68.23721l15.34838,-26.85968l7.67419,4.38526l-15.34838,26.85968z" fill="#dfff50" stroke="none" stroke-width="0" stroke-linecap="butt"/><path d="M237.20994,70.30718l-17.23449,-25.69022l7.34006,-4.92414l17.2345,25.69022z" data-paper-data="{&quot;index&quot;:null}" fill="#dfff50" stroke="none" stroke-width="0" stroke-linecap="butt"/><path d="M136.86799,117.5l2,-59h74l4.5,59h-1.34063c-1.49518,-1.29654 -2.79757,-2.89717 -4.57823,-3.74341c-1.23111,-0.58508 -2.71897,-0.20723 -4.08114,-0.25659c-4.31959,-0.15652 -8.67702,0 -13,0c-11.66666,0 -23.33334,0 -35,0c-3.82828,0 -9.43643,-0.95832 -13.08114,0.25659c-1.29312,0.43104 -2.27924,1.49561 -3.41886,2.24341c0,0 -0.73696,0.55272 -1.34098,1.5z" fill="#5a83e2" stroke="none" stroke-width="0" stroke-linecap="butt"/><path d="M144.36799,161.5c0,0 -7.5,-28.96345 -7.5,-37c0,-3.6634 8.5,-4.5 8.5,-4.5c0,0 -1.87718,-6.04949 1.00747,-6.10391c10.5733,-0.1995 70.99253,-0.39609 70.99253,-0.39609c0,0 -9.5,1.59371 0,10c6.43264,5.69206 -4.5,38.5 -4.5,38.5z" fill="#e3e3e3" stroke="none" stroke-width="0" stroke-linecap="butt"/><path d="M212.10526,184.5c0,0 10.53522,34.74922 4.33642,39.73711c-9.15466,7.36634 0,2.76289 0,2.76289c0,0 -58.22289,-0.17227 -68.41183,-0.34708c-2.77978,-0.04769 -0.97085,-5.34879 -0.97085,-5.34879c0,0 -3.19101,8.2669 -3.19101,5.0567c0,-7.04234 2.22736,-41.42268 2.22736,-41.42268z" data-paper-data="{&quot;index&quot;:null}" fill="#e3e3e3" stroke="none" stroke-width="0" stroke-linecap="butt"/><path d="M144.02701,228c0.60402,0.7225 1.34098,1.14407 1.34098,1.14407c1.13962,0.57036 2.12574,1.38232 3.41886,1.71108c3.64471,0.92662 9.25286,0.1957 13.08114,0.1957c11.66666,0 23.33334,0 35,0c4.32298,0 8.68041,0.11938 13,0c1.36217,-0.03765 2.85003,0.25054 4.08114,-0.1957c1.78066,-0.64544 3.08305,-1.86626 4.57823,-2.85515h1.34063l-4.5,45h-74l-2,-45z" data-paper-data="{&quot;index&quot;:null}" fill="#5a83e2" stroke="none" stroke-width="0" stroke-linecap="butt"/><path d="" data-paper-data="{&quot;index&quot;:null}" fill="#78747a" stroke="none" stroke-width="0" stroke-linecap="butt"/><path d="" data-paper-data="{&quot;index&quot;:null}" fill="#424043" stroke="none" stroke-width="0" stroke-linecap="butt"/><path d="" fill="#636363" stroke="none" stroke-width="0" stroke-linecap="butt"/><path d="" fill="#636363" stroke="none" stroke-width="0" stroke-linecap="butt"/><path d="" fill="#78747a" stroke="none" stroke-width="0" stroke-linecap="butt"/><path d="" fill="#424043" stroke="none" stroke-width="0" stroke-linecap="butt"/><path d="" fill="#8f3ebb" stroke="none" stroke-width="0" stroke-linecap="butt"/><path d="" data-paper-data="{&quot;index&quot;:null}" fill="#8f3ebb" stroke="none" stroke-width="0" stroke-linecap="butt"/><path d="" fill="#c354ff" stroke="none" stroke-width="0" stroke-linecap="butt"/><path d="" fill="#8f3ebb" stroke="none" stroke-width="0" stroke-linecap="butt"/><path d="" data-paper-data="{&quot;index&quot;:null}" fill="#909090" stroke="none" stroke-width="0" stroke-linecap="butt"/><path d="" fill="#363437" stroke="none" stroke-width="0" stroke-linecap="butt"/><path d="" fill="none" stroke="#e43f67" stroke-width="6" stroke-linecap="round"/><path d="" fill="none" stroke="#e43f67" stroke-width="6" stroke-linecap="round"/><path d="" data-paper-data="{&quot;index&quot;:null}" fill="none" stroke="#e43f67" stroke-width="6" stroke-linecap="round"/><path d="" data-paper-data="{&quot;index&quot;:null}" fill="none" stroke="#e43f67" stroke-width="6" stroke-linecap="round"/><path d="" data-paper-data="{&quot;index&quot;:null}" fill="#363437" stroke="none" stroke-width="0" stroke-linecap="butt"/></g></g></svg>