<svg version="1.1" xmlns="http://www.w3.org/2000/svg" xmlns:xlink="http://www.w3.org/1999/xlink" width="141" height="295.85493" viewBox="0,0,141,295.85493"><g transform="translate(-107.5,-39)"><g data-paper-data="{&quot;isPaintingLayer&quot;:true}" fill-rule="nonzero" stroke="none" stroke-width="0" stroke-linecap="butt" stroke-linejoin="miter" stroke-miterlimit="10" stroke-dasharray="" stroke-dashoffset="0" style="mix-blend-mode: normal"><path d="M107.5,130v-41h11v41z" fill="#000000"/><path d="M110.5,247v-41h11v41z" fill="#000000"/><path d="M235.5,246v-41h11v41z" fill="#000000"/><path d="M237.5,129v-41h11v41z" fill="#000000"/><path d="M110.5,70c0,-7.59961 15,-29 15,-29l101,-2c0,0 19,18.43099 19,27c0,15.43898 -5.83283,66.05855 -4.52805,118.94015c-16.15586,-0.04265 -28.81639,0.99755 -42.16293,0.99755c-2.95762,0 -6.04988,0.98525 -9.05012,1.06231c-1.90066,0.04881 -3.8058,0.12884 -5.71465,0.22687c-1.37825,-2.22687 -4.29424,-2.22687 -4.29424,-2.22687h-1c-6.07482,0 -12.45118,-0.56675 -18.49269,0.02434c-3.21384,0.31444 -6.24566,1.29544 -9.34263,2.03543c-0.40328,-0.05977 -0.66468,-0.05977 -0.66468,-0.05977c-1,0 -4,0 -5,0c0,0 -0.85718,0 -1.86171,0.35491c-5.53912,-0.82341 -10.05358,-1.59073 -16.13829,-1.35491c-1.54174,0.05975 -3.21916,0.9847 -4.73105,1c-1.94141,0.01964 -0.96119,-0.37591 -4.85999,0.00041c-0.28281,0.00252 -0.56282,0.01678 -0.83956,0.04233c-0.43307,-51.95311 -6.3194,-102.40186 -6.3194,-117.04273z" fill="#959595"/><path d="M117.3194,180.32586c0.27674,0.02666 -5.44325,0.04154 -5.16044,0.04418c3.8988,0.39281 8.41858,-0.02008 10.35999,0.00043c1.51189,0.01596 3.18931,0.98144 4.73105,1.04382c6.08471,0.24616 10.59918,-0.55479 16.1383,-1.41427c1.00453,0.37046 1.86171,0.37046 1.86171,0.37046c1,0 4,0 5,0c0,0 0.2614,0 0.66468,-0.06239c3.09697,0.77242 6.12879,1.79641 9.34263,2.12461c6.04152,0.61698 12.41788,0.02541 18.49269,0.02541h1c0,0 2.91599,0 4.29424,-2.32443c1.90885,0.10233 3.814,0.18585 5.71465,0.2368c3.00024,0.08043 6.0925,1.10885 9.05012,1.10885c13.34654,0 26.00708,0.04197 42.16294,-0.00257c-1.30478,55.19854 4.52805,109.07977 4.52805,125.19519c0,8.94444 -19,28.18298 -19,28.18298l-101,-2.08763c0,0 -15,-22.33802 -15,-30.27061c0,-15.28234 6.38633,-67.94145 6.8194,-122.17081z" data-paper-data="{&quot;index&quot;:null}" fill="#959595"/><path d="M110.75144,68.23721l15.34838,-26.85968l7.67419,4.38526l-15.34838,26.85968z" fill="#ebff91"/><path d="M237.20994,70.30718l-17.23449,-25.69022l7.34006,-4.92414l17.2345,25.69022z" data-paper-data="{&quot;index&quot;:null}" fill="#ebff91"/><path d="M139.86799,117.5l1.86441,-55h68.98306l4.19492,55h-1.24974c-1.39381,-1.20864 -2.60791,-2.70075 -4.26785,-3.48962c-1.14765,-0.54542 -2.53463,-0.19318 -3.80445,-0.23919c-4.02674,-0.14591 -8.08875,0 -12.11865,0c-10.8757,0 -21.75142,0 -32.62712,0c-3.56874,0 -8.79667,-0.89335 -12.19428,0.23919c-1.20545,0.40181 -2.12471,1.39422 -3.18707,2.09132c0,0 -0.68699,0.51524 -1.25007,1.3983z" fill="#8c8c8c"/><path d="M144.36799,161.5c0,0 -7.5,-28.96345 -7.5,-37c0,-3.6634 8.5,-4.5 8.5,-4.5c0,0 -1.87718,-6.04949 1.00747,-6.10391c10.5733,-0.1995 70.99253,-0.39609 70.99253,-0.39609c0,0 -9.5,1.59371 0,10c6.43264,5.69206 -4.5,38.5 -4.5,38.5z" fill="#a9b8ff"/><path d="M212.10526,215.5c0,0 10.53522,34.74922 4.33642,39.73711c-9.15466,7.36634 0,2.76289 0,2.76289c0,0 -58.22289,-0.17227 -68.41183,-0.34708c-2.77978,-0.04769 -0.97085,-5.34879 -0.97085,-5.34879c0,0 -3.19101,8.2669 -3.19101,5.0567c0,-7.04234 2.22736,-41.42268 2.22736,-41.42268z" data-paper-data="{&quot;index&quot;:null}" fill="#a9b8ff"/><path d="M144.02701,257c0.60402,0.7225 1.34098,1.14407 1.34098,1.14407c1.13962,0.57036 2.12574,1.38232 3.41886,1.71108c3.64471,0.92662 9.25286,0.1957 13.08114,0.1957c11.66666,0 23.33334,0 35,0c4.32298,0 8.68041,0.11938 13,0c1.36217,-0.03765 2.85003,0.25054 4.08114,-0.1957c1.78066,-0.64544 3.08305,-1.86626 4.57823,-2.85515h1.34063l-4.5,45h-74l-2,-45z" data-paper-data="{&quot;index&quot;:null}" fill="#8c8c8c"/><path d="M198.384,168.5c0,0 6.71848,29.21095 2.76541,33.40388c-5.83808,6.19231 0,2.32255 0,2.32255c0,0 -37.12968,-0.14481 -43.62733,-0.29176c-1.77271,-0.04009 -0.61912,-4.49631 -0.61912,-4.49631c0,0 -2.03496,6.94933 -2.03496,4.25077c0,-5.91995 1.42042,-34.8208 1.42042,-34.8208z" data-paper-data="{&quot;index&quot;:null}" fill="#a9b8ff"/></g></g></svg>