<svg version="1.1" xmlns="http://www.w3.org/2000/svg" xmlns:xlink="http://www.w3.org/1999/xlink" width="143" height="206.94418" viewBox="0,0,143,206.94418"><g transform="translate(-107.5,-38.91075)"><g data-paper-data="{&quot;isPaintingLayer&quot;:true}" fill-rule="nonzero" stroke="none" stroke-width="0" stroke-linecap="butt" stroke-linejoin="miter" stroke-miterlimit="10" stroke-dasharray="" stroke-dashoffset="0" style="mix-blend-mode: normal"><path d="M107.5,130v-41h11v41z" fill="#8f98ad"/><path d="M108.5,224v-41h11v41z" fill="#8f98ad"/><path d="M239.5,233v-41h11v41z" fill="#8f98ad"/><path d="M237.5,129v-41h11v41z" fill="#8f98ad"/><path d="M110.5,70c0,-7.59961 15,-29 15,-29l101,-2c0,0 19,18.43099 19,27c0,15.43898 -5.83283,66.05855 -4.52805,118.94015c-16.15586,-0.04265 -28.81639,0.99755 -42.16293,0.99755c-2.95762,0 -6.04988,0.98525 -9.05012,1.06231c-1.90066,0.04881 -3.8058,0.12884 -5.71465,0.22687c-1.37825,-2.22687 -4.29424,-2.22687 -4.29424,-2.22687h-1c-6.07482,0 -12.45118,-0.56675 -18.49269,0.02434c-3.21384,0.31444 -6.24566,1.29544 -9.34263,2.03543c-0.40328,-0.05977 -0.66468,-0.05977 -0.66468,-0.05977c-1,0 -4,0 -5,0c0,0 -0.85718,0 -1.86171,0.35491c-5.53912,-0.82341 -10.05358,-1.59073 -16.13829,-1.35491c-1.54174,0.05975 -3.21916,0.9847 -4.73105,1c-1.94141,0.01964 -0.96119,-0.37591 -4.85999,0.00041c-0.28281,0.00252 -0.56282,0.01678 -0.83956,0.04233c-0.43307,-51.95311 -6.3194,-102.40186 -6.3194,-117.04273z" fill="#f93e3e"/><path d="M117.3194,180.13859c0.27674,0.01134 -5.44325,0.01767 -5.16044,0.01879c3.8988,0.16705 8.41858,-0.00854 10.35999,0.00018c1.51189,0.00679 3.18931,0.41738 4.73105,0.44391c6.08471,0.10468 10.59918,-0.23593 16.1383,-0.60144c1.00453,0.15754 1.86171,0.15754 1.86171,0.15754c1,0 4,0 5,0c0,0 0.2614,0 0.66468,-0.02653c3.09697,0.32849 6.12879,0.76395 9.34263,0.90353c6.04152,0.26238 12.41788,0.0108 18.49269,0.0108h1c0,0 2.91599,0 4.29424,-0.98851c1.90885,0.04352 3.814,0.07904 5.71465,0.10071c3.00024,0.0342 6.0925,0.47156 9.05012,0.47156c13.34654,0 26.00708,0.01785 42.16294,-0.00109c-1.30478,23.4742 4.52805,46.38818 4.52805,53.24156c0,3.80379 -19,11.98533 -19,11.98533l-101,-0.8878c0,0 -15,-9.49966 -15,-12.87313c0,-6.4991 6.38633,-28.89336 6.8194,-51.9554z" data-paper-data="{&quot;index&quot;:null}" fill="#f93e3e"/><path d="M239.67004,68.42216c0,0 -11.96488,-0.87195 -14.89095,-4.43203c-3.51351,-4.2748 -4.75202,-19.4671 -4.75202,-19.4671l6.82832,-5.61228l19.64299,23.89913z" data-paper-data="{&quot;index&quot;:null}" fill="#dfff50"/><path d="M136.86799,117.5l2,-59h74l4.5,59h-1.34063c-1.49518,-1.29654 -2.79757,-2.89717 -4.57823,-3.74341c-1.23111,-0.58508 -2.71897,-0.20723 -4.08114,-0.25659c-4.31959,-0.15652 -8.67702,0 -13,0c-11.66666,0 -23.33334,0 -35,0c-3.82828,0 -9.43643,-0.95832 -13.08114,0.25659c-1.29312,0.43104 -2.27924,1.49561 -3.41886,2.24341c0,0 -0.73696,0.55272 -1.34098,1.5z" fill="#d73636"/><path d="M144.36799,161.5c0,0 -7.5,-28.96345 -7.5,-37c0,-3.6634 8.5,-4.5 8.5,-4.5c0,0 -1.87718,-6.04949 1.00747,-6.10391c10.5733,-0.1995 70.99253,-0.39609 70.99253,-0.39609c0,0 -9.5,1.59371 0,10c6.43264,5.69206 -4.5,38.5 -4.5,38.5z" fill="#e3e3e3"/><path d="M212.10526,184.5c0,0 10.53522,34.74922 4.33642,39.73711c-9.15466,7.36634 0,2.76289 0,2.76289c0,0 -58.22289,-0.17227 -68.41183,-0.34708c-2.77978,-0.04769 -0.97085,-5.34879 -0.97085,-5.34879c0,0 -3.19101,8.2669 -3.19101,5.0567c0,-7.04234 2.22736,-41.42268 2.22736,-41.42268z" data-paper-data="{&quot;index&quot;:null}" fill="#e3e3e3"/><path d="M109.11011,67.57927l16.08925,-26.42255l7.5493,4.59693c0,0 0.9089,15.21557 -1.96896,19.94174c-2.3967,3.93598 -14.12028,6.48082 -14.12028,6.48082z" data-paper-data="{&quot;index&quot;:null}" fill="#dfff50"/></g></g></svg>