<svg version="1.1" xmlns="http://www.w3.org/2000/svg" xmlns:xlink="http://www.w3.org/1999/xlink" width="151" height="258.5" viewBox="0,0,151,258.5"><g transform="translate(-102,-39)"><g data-paper-data="{&quot;isPaintingLayer&quot;:true}" fill-rule="nonzero" stroke="none" stroke-width="0" stroke-linecap="butt" stroke-linejoin="miter" stroke-miterlimit="10" stroke-dasharray="" stroke-dashoffset="0" style="mix-blend-mode: normal"><path d="M102,136v-41h13.5v41z" fill="#8f98ad"/><path d="M102.5,247v-41h15.5v41z" fill="#8f98ad"/><path d="M235.5,246v-41h15.5v41z" fill="#8f98ad"/><path d="M237.5,135v-41h15.5v41z" fill="#8f98ad"/><path d="M110.5,70c0,-7.59961 15,-29 15,-29l101,-2c0,0 19,18.43099 19,27c0,15.43898 -5.83283,66.05855 -4.52805,118.94015c-16.15586,-0.04265 -28.81639,0.99755 -42.16293,0.99755c-2.95762,0 -6.04988,0.98525 -9.05012,1.06231c-1.90066,0.04881 -3.8058,0.12884 -5.71465,0.22687c-1.37825,-2.22687 -4.29424,-2.22687 -4.29424,-2.22687h-1c-6.07482,0 -12.45118,-0.56675 -18.49269,0.02434c-3.21384,0.31444 -6.24566,1.29544 -9.34263,2.03543c-0.40328,-0.05977 -0.66468,-0.05977 -0.66468,-0.05977c-1,0 -4,0 -5,0c0,0 -0.85718,0 -1.86171,0.35491c-5.53912,-0.82341 -10.05358,-1.59073 -16.13829,-1.35491c-1.54174,0.05975 -3.21916,0.9847 -4.73105,1c-1.94141,0.01964 0.53881,-1.37591 -3.35999,-0.99959c-0.28281,0.00252 -5.56282,1.51678 -5.83956,1.54233c-0.43307,-51.95311 -2.8194,-102.90186 -2.8194,-117.54273z" fill="#f5a40f"/><path d="M116.2837,183.43923c0.27469,0.0195 -3.41774,-3.17048 -3.13703,-3.16855c3.86992,0.28732 8.35622,-0.01469 10.28325,0.00031c1.50069,0.01168 3.16568,0.71788 4.696,0.76351c6.03964,0.18006 10.52067,-0.4058 16.01876,-1.03447c0.99709,0.27097 1.84792,0.27097 1.84792,0.27097c0.99259,0 3.97037,0 4.96296,0c0,0 0.25946,0 0.65975,-0.04564c3.07403,0.56499 6.08339,1.314 9.27343,1.55406c5.99677,0.45129 12.3259,0.01858 18.35571,0.01858h0.99259c0,0 2.8944,0 4.26244,-1.70022c1.89471,0.07485 3.78574,0.13595 5.67231,0.17321c2.97801,0.05883 6.04737,0.81107 8.98308,0.81107c13.24767,0 25.81444,0.0307 41.85062,-0.00187c-1.29512,40.37527 0.49451,79.78697 0.49451,91.57468c0,6.54246 1.14074,19.70006 1.14074,19.70006l-131.25185,-0.61247c0,0 0.11111,-16.33927 0.11111,-22.14159c0,-11.17835 1.87236,-47.86707 2.30222,-87.53342z" data-paper-data="{&quot;index&quot;:null}" fill="#f5a40f"/><path d="M114.30407,60.11381l10.70644,-18.73628l5.35322,3.05899c0,0 1.41688,8.20859 -0.54318,11.6387c-1.45802,2.55153 -10.16326,7.09758 -10.16326,7.09758z" fill="#dfff50"/><path d="M136.86799,117.5l2,-49.5h74l4.5,49.5h-1.34063c-1.49518,-1.08778 -2.79757,-2.43068 -4.57823,-3.14066c-1.23111,-0.49087 -2.71897,-0.17386 -4.08114,-0.21527c-4.31959,-0.13132 -8.67702,0 -13,0c-11.66666,0 -23.33334,0 -35,0c-3.82828,0 -9.43643,-0.80401 -13.08114,0.21527c-1.29312,0.36164 -2.27924,1.25479 -3.41886,1.88218c0,0 -0.73696,0.46372 -1.34098,1.25847z" fill="#e2980e"/><path d="M144.36799,148.63402c0,0 -7.5,-21.20005 -7.5,-27.08247c0,-2.68146 8.5,-3.29382 8.5,-3.29382c0,0 -1.87718,-4.42798 1.00747,-4.46781c10.5733,-0.14602 70.99253,-0.28992 70.99253,-0.28992c0,0 -9.5,1.16653 0,7.31959c6.43264,4.16635 -4.5,28.18041 -4.5,28.18041z" fill="#c8c8c8"/><path d="M143.85338,153c0.58151,0.29837 1.29101,0.47247 1.29101,0.47247c1.09715,0.23555 2.04651,0.57086 3.29145,0.70664c3.50888,0.38267 8.90804,0.08082 12.59365,0.08082c11.23188,0 22.46378,0 33.69565,0c4.16188,0 8.35691,0.0493 12.51552,0c1.31141,-0.01555 2.74382,0.10346 3.92905,-0.08082c1.7143,-0.26655 2.96815,-0.77072 4.40761,-1.1791h1.29067l-4.3323,18.58385h-71.24223l-1.92547,-18.58385z" data-paper-data="{&quot;index&quot;:null}" fill="#c8c8c8"/><path d="M112.7147,296.5v-100.5h17v100.5z" fill="#f5a40f"/><path d="M223.7147,297.5v-100.5h17v100.5z" fill="#f5a40f"/><path d="M128.71469,290.5v-93h95v93z" fill="#b97c0b"/><path d="M236.29683,60.02575c0,0 -9.34583,-3.01716 -11.21222,-5.28712c-2.50905,-3.05159 -2.49295,-11.38155 -2.49295,-11.38155l4.76247,-3.91577l13.70517,16.66867z" data-paper-data="{&quot;index&quot;:null}" fill="#dfff50"/></g></g></svg>