<svg version="1.1" xmlns="http://www.w3.org/2000/svg" xmlns:xlink="http://www.w3.org/1999/xlink" width="151" height="291.48998" viewBox="0,0,151,291.48998"><g transform="translate(-102,-3)"><g data-paper-data="{&quot;isPaintingLayer&quot;:true}" fill-rule="nonzero" stroke-linejoin="miter" stroke-miterlimit="10" stroke-dasharray="" stroke-dashoffset="0" style="mix-blend-mode: normal"><path d="M102,100v-41h13.5v41z" data-paper-data="{&quot;index&quot;:null}" fill="#383838" stroke="none" stroke-width="0" stroke-linecap="butt"/><path d="M102,236.5v-41h15.5v41z" data-paper-data="{&quot;index&quot;:null}" fill="#383838" stroke="none" stroke-width="0" stroke-linecap="butt"/><path d="M235.5,237v-41h15.5v41z" data-paper-data="{&quot;index&quot;:null}" fill="#383838" stroke="none" stroke-width="0" stroke-linecap="butt"/><path d="M237.5,99v-41h15.5v41z" data-paper-data="{&quot;index&quot;:null}" fill="#383838" stroke="none" stroke-width="0" stroke-linecap="butt"/><path d="M110.5,34c0,-7.59961 15,-29 15,-29l101,-2c0,0 19,18.43099 19,27c0,15.43898 -5.83283,66.05855 -4.52805,118.94015c-16.15586,-0.04265 -28.81639,0.99755 -42.16293,0.99755c-2.95762,0 -6.04988,0.98525 -9.05012,1.06231c-1.90066,0.04881 -3.8058,0.12884 -5.71465,0.22687c-1.37825,-2.22687 -4.29424,-2.22687 -4.29424,-2.22687h-1c-6.07482,0 -12.45118,-0.56675 -18.49269,0.02434c-3.21384,0.31444 -6.24566,1.29544 -9.34263,2.03543c-0.40328,-0.05977 -0.66468,-0.05977 -0.66468,-0.05977c-1,0 -4,0 -5,0c0,0 -0.85718,0 -1.86171,0.35491c-5.53912,-0.82341 -10.05358,-1.59073 -16.13829,-1.35491c-1.54174,0.05975 -3.21916,0.9847 -4.73105,1c-1.94141,0.01964 0.53881,-1.37591 -3.35999,-0.99959c-0.28281,0.00252 -5.56282,1.51678 -5.83956,1.54233c-0.43307,-51.95311 -2.8194,-102.90186 -2.8194,-117.54273z" data-paper-data="{&quot;index&quot;:null}" fill="#00c71e" stroke="none" stroke-width="0" stroke-linecap="butt"/><path d="M116.2837,147.43923c0.27469,0.0195 -3.41774,-3.17048 -3.13703,-3.16855c3.86992,0.28732 8.35622,-0.01469 10.28325,0.00031c1.50069,0.01168 3.16568,0.71788 4.696,0.76351c6.03964,0.18006 10.52067,-0.4058 16.01876,-1.03447c0.99709,0.27097 1.84792,0.27097 1.84792,0.27097c0.99259,0 3.97037,0 4.96296,0c0,0 0.25946,0 0.65975,-0.04564c3.07403,0.56499 6.08339,1.314 9.27343,1.55406c5.99677,0.45129 12.3259,0.01858 18.35571,0.01858h0.99259c0,0 2.8944,0 4.26244,-1.70022c1.89471,0.07485 3.78574,0.13595 5.67231,0.17321c2.97801,0.05883 6.04737,0.81107 8.98308,0.81107c13.24767,0 25.81444,0.0307 41.85062,-0.00187c-1.29512,40.37527 0.49451,79.78697 0.49451,91.57468c0,6.54246 1.14074,19.70006 1.14074,19.70006l-131.25185,-0.61247c0,0 0.11111,-16.33927 0.11111,-22.14159c0,-11.17835 1.87236,-47.86707 2.30222,-87.53342z" data-paper-data="{&quot;index&quot;:null}" fill="#00c71e" stroke="none" stroke-width="0" stroke-linecap="butt"/><path d="M138.86799,81.5l2,-54.5h74l4.5,54.5h-1.34063c-1.49518,-1.19766 -2.79757,-2.6762 -4.57823,-3.4579c-1.23111,-0.54045 -2.71897,-0.19142 -4.08114,-0.23701c-4.31959,-0.14458 -8.67702,0 -13,0c-11.66666,0 -23.33334,0 -35,0c-3.82828,0 -9.43643,-0.88522 -13.08114,0.23701c-1.29312,0.39817 -2.27924,1.38154 -3.41886,2.0723c0,0 -0.73696,0.51056 -1.34098,1.38559z" data-paper-data="{&quot;index&quot;:null}" fill="#00ac1a" stroke="none" stroke-width="0" stroke-linecap="butt"/><path d="M112.7147,160h17v133.29193c-5.66916,0.0875 -11.33522,0.16794 -17,0.1968z" data-paper-data="{&quot;index&quot;:null}" fill="#00c71e" stroke="none" stroke-width="0" stroke-linecap="butt"/><path d="M223.7147,162.5015h17v130.4985c-5.66666,0 -11.33334,0 -17,0z" data-paper-data="{&quot;index&quot;:null}" fill="#00c71e" stroke="none" stroke-width="0" stroke-linecap="butt"/><path d="M128.71469,161.5h98.5v131.5c-5.262,0 -10.52401,0 -15.78601,0c-18.33334,0 -36.66666,0 -55,0c-9.25119,0 -18.48657,0.16645 -27.71399,0.30728z" data-paper-data="{&quot;index&quot;:null}" fill="#00c71e" stroke="none" stroke-width="0" stroke-linecap="butt"/><path d="M114.35735,130.04805l-1.89498,163.44193" data-paper-data="{&quot;index&quot;:null}" fill="none" stroke="#008814" stroke-width="2" stroke-linecap="round"/><path d="M130.35735,130.04805l-1.8929,163.26304" data-paper-data="{&quot;index&quot;:null}" fill="none" stroke="#008814" stroke-width="2" stroke-linecap="round"/><path d="M145.46729,293.06613l1.89006,-163.01808" data-paper-data="{&quot;index&quot;:null}" fill="none" stroke="#008814" stroke-width="2" stroke-linecap="round"/><path d="M164.35735,128.54655l-1.9067,164.45346" data-paper-data="{&quot;index&quot;:null}" fill="none" stroke="#008814" stroke-width="2" stroke-linecap="round"/><path d="M200.35735,130.04805l-1.8893,162.95195" data-paper-data="{&quot;index&quot;:null}" fill="none" stroke="#008814" stroke-width="2" stroke-linecap="round"/><path d="M183.35735,130.04805l-1.8893,162.95195" data-paper-data="{&quot;index&quot;:null}" fill="none" stroke="#008814" stroke-width="2" stroke-linecap="round"/><path d="M220.35735,128.54655l-1.9067,164.45345" data-paper-data="{&quot;index&quot;:null}" fill="none" stroke="#008814" stroke-width="2" stroke-linecap="round"/><path d="M239.35735,128.54655l-1.9067,164.45346" data-paper-data="{&quot;index&quot;:null}" fill="none" stroke="#008814" stroke-width="2" stroke-linecap="round"/><path d="M139.78744,148c0.63778,0.49906 1.41594,0.79027 1.41594,0.79027c1.20333,0.39399 2.24457,0.95484 3.60998,1.18194c3.84845,0.64006 9.7701,0.13518 13.81239,0.13518c12.31883,0 24.63769,0 36.95652,0c4.56464,0 9.16564,0.08246 13.7267,0c1.43833,-0.02601 3.00935,0.17305 4.30928,-0.13518c1.8802,-0.44584 3.25539,-1.28913 4.83415,-1.97219h1.41558l-4.75155,31.08384h-78.13664l-2.11181,-31.08384z" data-paper-data="{&quot;index&quot;:null}" fill="#c7c7c7" stroke="none" stroke-width="0" stroke-linecap="butt"/><path d="M111.62162,294.36712v-39.03904h129.12913v39.03904z" data-paper-data="{&quot;index&quot;:null}" fill="#00c71e" stroke="none" stroke-width="0" stroke-linecap="butt"/><path d="M121.21823,82c0.95293,0.61145 2.11558,0.96824 2.11558,0.96824c1.79792,0.48272 3.35365,1.16987 5.39374,1.44811c5.75004,0.7842 14.59769,0.16562 20.63734,0.16562c18.40578,0 36.81161,0 55.21739,0c6.82011,0 13.69454,0.10103 20.5093,0c2.14903,-0.03187 4.49632,0.21202 6.43857,-0.16562c2.80924,-0.54624 4.86394,-1.57944 7.2228,-2.41632h2.11504l-4.09937,38.08384h-119.74534l-3.15529,-38.08384z" data-paper-data="{&quot;index&quot;:null}" fill="#c7c7c7" stroke="none" stroke-width="0" stroke-linecap="butt"/><path d="M112.81572,27.6947l12.38435,-19.39601l12.00966,7.00661l-12.38435,19.39601z" data-paper-data="{&quot;index&quot;:null}" fill="#dfff50" stroke="none" stroke-width="0" stroke-linecap="butt"/><path d="M230.70007,32.20131l-12.38434,-19.396l12.00966,-7.00661l12.38434,19.396z" data-paper-data="{&quot;index&quot;:null}" fill="#dfff50" stroke="none" stroke-width="0" stroke-linecap="butt"/></g></g></svg>