<svg version="1.1" xmlns="http://www.w3.org/2000/svg" xmlns:xlink="http://www.w3.org/1999/xlink" width="83.93258" height="107.84458" viewBox="0,0,83.93258,107.84458"><g transform="translate(-170.56742,-61.15542)"><g data-paper-data="{&quot;isPaintingLayer&quot;:true}" fill-rule="nonzero" stroke="none" stroke-linecap="butt" stroke-linejoin="miter" stroke-miterlimit="10" stroke-dasharray="" stroke-dashoffset="0" style="mix-blend-mode: normal"><path d="M254.5,127.5c0,22.91982 -18.78895,41.5 -41.96629,41.5c-23.17734,0 -41.96629,-18.58018 -41.96629,-41.5c0,-22.91982 18.78895,-41.5 41.96629,-41.5c23.17734,0 41.96629,18.58018 41.96629,41.5z" fill="#e2d43b" stroke-width="0"/><path d="M245.36275,126.96c0,18.20331 -14.46735,32.96 -32.31373,32.96c-17.84638,0 -32.31373,-14.75669 -32.31373,-32.96c0,-18.20331 14.46735,-32.96 32.31373,-32.96c17.84638,0 32.31373,14.75669 32.31373,32.96z" fill="#ffea00" stroke-width="0"/><text transform="translate(196.66667,148.68875) scale(1.73333,1.73333)" font-size="40" xml:space="preserve" fill="#b5a600" fill-rule="nonzero" stroke="none" stroke-width="1" stroke-linecap="butt" stroke-linejoin="miter" stroke-miterlimit="10" stroke-dasharray="" stroke-dashoffset="0" font-family="Pixel" font-weight="normal" text-anchor="start" style="mix-blend-mode: normal"><tspan x="0" dy="0">c</tspan></text></g></g></svg>