<svg version="1.1" xmlns="http://www.w3.org/2000/svg" xmlns:xlink="http://www.w3.org/1999/xlink" width="92" height="333.65986" viewBox="0,0,92,333.65986"><g transform="translate(-192.50601,73.12913)"><g data-paper-data="{&quot;isPaintingLayer&quot;:true}" fill-rule="nonzero" stroke="none" stroke-linecap="butt" stroke-linejoin="miter" stroke-miterlimit="10" stroke-dasharray="" stroke-dashoffset="0" style="mix-blend-mode: normal"><path d="M259.50602,137.87087c0,0 0,32.27949 0,41c0,4.08574 -11,12 -11,12h-20c0,0 -13,-7.91426 -13,-12c0,-8.72051 0,-41 0,-41z" data-paper-data="{&quot;index&quot;:null}" fill="#78747a" stroke-width="0"/><path d="M253.50604,141.87087v42h-30v-42z" data-paper-data="{&quot;index&quot;:null}" fill="#424043" stroke-width="0"/><path d="M215.77044,114.17448l-12.94519,0.43636l-1.58361,-32.04357l12.94519,-0.43636z" fill="#636363" stroke-width="0"/><path d="M272.90061,111.57286l-13.83947,-0.31577l0.05027,-32.0882l13.83947,0.31577z" fill="#636363" stroke-width="0"/><path d="M214.50604,-20.12913c0,0 0,-32.27949 0,-41c0,-4.08575 13,-12 13,-12h20c0,0 11,7.91425 11,12c0,8.72051 0,41 0,41z" fill="#78747a" stroke-width="0"/><path d="M221.50604,-22.12913v-42h30v42z" fill="#424043" stroke-width="0"/><path d="M201.70601,54.10421c0,0 -9.2,-24.64026 -9.2,-46.76667c0,-12.83463 9.2,-24.82342 9.2,-30.66667c0,-6.80324 31.39329,-36.8 31.39329,-36.8h7.44925c0,0 32.45746,26.76241 32.45746,32.96667c0,6.61796 11.5,22.41127 11.5,38.33334c0,21.3509 -11.5,42.93334 -11.5,42.93334z" fill="#8f3ebb" stroke-width="0"/><path d="M248.75954,86.87087c0,0 17.74648,6.90222 17.74648,16.74418c0,8.16896 0,23.81046 0,33.48837c0,4.97354 -20.93024,32.09302 -20.93024,32.09302h-19.53488c0,0 -19.53489,-27.81239 -19.53489,-33.48837c0,-8.56576 0,-20.7402 0,-27.90698c0,-10.75599 19.43661,-20.93024 19.43661,-20.93024z" data-paper-data="{&quot;index&quot;:null}" fill="#8f3ebb" stroke-width="0"/><path d="M216.2727,45.33754c0,0 0,-43.45742 0,-51.84082c0,-2.68484 13.03334,-13.29251 13.03334,-13.29251h17.63333c0,0 15.33333,11.37034 15.33333,14.62176c0,8.96356 1.53334,50.51157 1.53334,50.51157z" fill="#c354ff" stroke-width="0"/><path d="M225.50604,94.87087c0,0 -23,-7.29154 -23,-15c0,-8.53961 0,-27 0,-27h71c0,0 0,21.13696 0,30c0,7.0534 -21,12 -21,12z" fill="#8f3ebb" stroke-width="0"/><path d="M244.78773,72.87087c0,0 12.71831,4.9466 12.71831,12c0,8.86304 0,30 0,30h-43c0,0 0,-18.46039 0,-27c0,-7.70846 13.92958,-15 13.92958,-15z" data-paper-data="{&quot;index&quot;:null}" fill="#909090" stroke-width="0"/><path d="M201.88481,56.91219l-5.1462,-7.54109l28.05531,-11.45583l5.1462,7.54109z" fill="#363437" stroke-width="0"/><path d="M243.23859,45.78969l5.1462,-7.54109l28.05531,11.45583l-5.1462,7.54109z" data-paper-data="{&quot;index&quot;:null}" fill="#363437" stroke-width="0"/><path d="M240.13126,200.32116c0.59625,-0.44718 1.38539,-0.24989 1.38539,-0.24989l1.21222,0.30494c0.77394,0.2208 1.74972,0.09634 2.32184,0.6624c2.16984,2.1469 1.06757,3.25858 0.24809,5.43243c-2.1053,1.54977 -4.41063,2.41386 -7.05718,1.14385c-0.78124,-0.3749 -2.07275,-1.02766 -2.10211,-1.81745c-0.68907,0.02949 -3.58227,0.0174 -3.68201,-0.01221c-0.94236,-0.27969 -2.02666,-0.55022 -2.63646,-1.3212c-0.45171,-0.5711 -0.06926,-2.59916 -0.4582,-3.46248c-0.28036,-0.62232 -1.10821,-1.05022 -1.09138,-1.73256c0.14212,-5.76326 7.26476,-3.64371 10.00566,-1.46188c0.62732,0.49936 1.02114,1.23646 1.5317,1.85469c0,0 0.21585,0.26981 0.32242,0.65937z" fill="#524f53" stroke-width="0.5"/><path d="M216.01393,218.88197c2.14043,-3.99667 4.65815,-3.0415 7.66454,-1.70316c0.38989,0.17356 0.48428,1.02445 0.89652,0.91404c0.4069,-0.10898 0.01836,-0.90587 0.28637,-1.23085c0.84123,-1.02008 1.70124,-2.18833 2.93193,-2.67169c4.74043,-1.86184 8.21706,2.04791 9.76641,5.85299c0.52821,1.29723 1.36881,2.64106 1.18922,4.03014c-0.22091,1.7087 -0.90122,3.63029 -2.30816,4.62477c-1.07321,0.75859 -2.62344,-0.17145 -3.93711,-0.21037c-3.54926,-0.10514 -6.91439,0.23862 -10.37399,0.70451c-1.02467,1.30217 -3.90628,1.53986 -5.24723,2.42675c-0.11981,0.07924 0.17418,-0.24228 0.19622,-0.38422c0.08769,-0.56465 0.10865,-1.14398 0.12539,-1.71515c0.03733,-1.27395 -0.10264,-2.68052 0.17204,-3.76168c-1.79659,-1.74733 -2.37076,-4.9928 -1.36216,-6.87607z" fill="#524f53" stroke-width="0.5"/><path d="M248.53924,213.63999c0.65694,-0.81172 1.31389,-1.62344 1.97083,-2.43515c1.41044,-1.0703 3.9139,-3.13247 5.57261,-3.61412c6.79872,-1.97422 15.93836,4.89792 14.13505,12.30974c-0.39745,1.63358 -0.83732,3.41899 -2.00594,4.62765c-0.55114,0.57002 -1.6317,-0.36586 -2.3768,-0.09475c-0.28421,0.10341 0.38123,0.51132 0.40286,0.81299c0.08297,1.15683 0.33436,2.40075 -0.0951,3.47812c-0.65723,1.64875 -1.60371,3.3257 -3.0353,4.37492c-2.66907,1.95617 -8.31934,1.11166 -10.96834,-0.35976c-1.27003,-0.70546 -2.90046,-1.21575 -3.56459,-2.50787c-0.69425,-1.35073 -0.66054,-3.52473 0.02015,-5.11736c-3.67518,0.19497 -8.43981,0.27022 -9.71383,-3.31627c-1.583,-4.45631 4.97443,-8.21691 8.27324,-8.29628c0.46748,-0.01125 0.92822,0.04455 1.38517,0.13815z" fill="#767177" stroke-width="0.5"/><path d="M224.97326,234.85729c0.61297,-1.35729 2.27675,-1.35729 2.27675,-1.35729c1.66667,0 4.33333,0 6,0c2.59556,0 8.98824,-0.93732 10.93336,1.41503c2.11581,2.55879 -0.31532,9.31792 -2.09905,11.2836c-1.5948,1.75748 -4.08931,2.51504 -6.34402,2.75283c-0.40981,0.04322 -0.9415,-0.48508 -1.22252,-0.18368c-0.30259,0.32453 0.24002,0.88449 0.16185,1.32126c-0.61112,3.41464 -2.38742,9.37063 -6.42695,10.35992c-3.76376,0.92175 -9.57981,-6.18877 -10.41195,-9.28161c-0.29532,-1.09761 -0.29466,-2.6659 0.06485,-4.11528c-0.18643,-0.01809 -0.37187,-0.04526 -0.55602,-0.08434c-4.00332,-0.84952 -8.34789,-4.89314 -5.83561,-9.58575c1.88555,-3.52197 8.89609,-3.84609 13.45932,-2.52468z" fill="#767177" stroke-width="0.5"/></g></g></svg>