<svg version="1.1" xmlns="http://www.w3.org/2000/svg" xmlns:xlink="http://www.w3.org/1999/xlink" width="92" height="341.28753" viewBox="0,0,92,341.28753"><g transform="translate(-192.50601,73.12913)"><g data-paper-data="{&quot;isPaintingLayer&quot;:true}" fill-rule="nonzero" stroke="none" stroke-linecap="butt" stroke-linejoin="miter" stroke-miterlimit="10" stroke-dasharray="" stroke-dashoffset="0" style="mix-blend-mode: normal"><path d="M259.50602,137.87087c0,0 0,32.27949 0,41c0,4.08574 -11,12 -11,12h-20c0,0 -13,-7.91426 -13,-12c0,-8.72051 0,-41 0,-41z" data-paper-data="{&quot;index&quot;:null}" fill="#78747a" stroke-width="0"/><path d="M253.50602,141.87087v42h-30v-42z" data-paper-data="{&quot;index&quot;:null}" fill="#424043" stroke-width="0"/><path d="M215.77042,114.17448l-12.94519,0.43636l-1.58361,-32.04357l12.94519,-0.43636z" fill="#636363" stroke-width="0"/><path d="M272.90061,111.57286l-13.83947,-0.31577l0.05027,-32.0882l13.83947,0.31577z" fill="#636363" stroke-width="0"/><path d="M214.50602,-20.12913c0,0 0,-32.27949 0,-41c0,-4.08575 13,-12 13,-12h20c0,0 11,7.91425 11,12c0,8.72051 0,41 0,41z" fill="#78747a" stroke-width="0"/><path d="M221.50602,-22.12913v-42h30v42z" fill="#424043" stroke-width="0"/><path d="M201.70601,54.10421c0,0 -9.2,-24.64026 -9.2,-46.76667c0,-12.83463 9.2,-24.82342 9.2,-30.66667c0,-6.80324 31.39329,-36.8 31.39329,-36.8h7.44925c0,0 32.45746,26.76241 32.45746,32.96667c0,6.61796 11.5,22.41127 11.5,38.33334c0,21.3509 -11.5,42.93334 -11.5,42.93334z" fill="#8f3ebb" stroke-width="0"/><path d="M248.75954,86.87087c0,0 17.74648,6.90222 17.74648,16.74418c0,8.16896 0,23.81046 0,33.48837c0,4.97354 -20.93024,32.09302 -20.93024,32.09302h-19.53488c0,0 -19.53489,-27.81239 -19.53489,-33.48837c0,-8.56576 0,-20.7402 0,-27.90698c0,-10.75599 19.43661,-20.93024 19.43661,-20.93024z" data-paper-data="{&quot;index&quot;:null}" fill="#8f3ebb" stroke-width="0"/><path d="M216.27269,45.33754c0,0 0,-43.45742 0,-51.84082c0,-2.68484 13.03334,-13.29251 13.03334,-13.29251h17.63333c0,0 15.33333,11.37034 15.33333,14.62176c0,8.96356 1.53334,50.51157 1.53334,50.51157z" fill="#c354ff" stroke-width="0"/><path d="M225.50602,94.87087c0,0 -23,-7.29154 -23,-15c0,-8.53961 0,-27 0,-27h71c0,0 0,21.13696 0,30c0,7.0534 -21,12 -21,12z" fill="#8f3ebb" stroke-width="0"/><path d="M244.78771,72.87087c0,0 12.71831,4.9466 12.71831,12c0,8.86304 0,30 0,30h-43c0,0 0,-18.46039 0,-27c0,-7.70846 13.92958,-15 13.92958,-15z" data-paper-data="{&quot;index&quot;:null}" fill="#909090" stroke-width="0"/><path d="M201.8848,56.91219l-5.1462,-7.54109l28.05531,-11.45583l5.1462,7.54109z" fill="#363437" stroke-width="0"/><path d="M243.23859,45.78969l5.1462,-7.54109l28.05531,11.45583l-5.1462,7.54109z" data-paper-data="{&quot;index&quot;:null}" fill="#363437" stroke-width="0"/><path d="M233.20327,198.96301c0.92665,-0.69497 2.15308,-0.38836 2.15308,-0.38836l1.88395,0.47391c1.20281,0.34315 2.7193,0.14972 3.60845,1.02946c3.37222,3.33657 1.65914,5.06426 0.38556,8.44271c-3.27192,2.40855 -6.8547,3.75146 -10.96779,1.7777c-1.21415,-0.58264 -3.22132,-1.59712 -3.26695,-2.82456c-1.07091,0.04583 -5.56731,0.02704 -5.72232,-0.01897c-1.46455,-0.43468 -3.14969,-0.85511 -4.0974,-2.05332c-0.70201,-0.88757 -0.10764,-4.03943 -0.7121,-5.38115c-0.43571,-0.96716 -1.7223,-1.63218 -1.69615,-2.69263c0.22087,-8.95687 11.29039,-5.66281 15.55011,-2.27196c0.97493,0.77607 1.58698,1.92162 2.38047,2.88243c0,0 0.33546,0.41932 0.50109,1.02474z" fill="#524f53" stroke-width="0.5"/><path d="M238.37338,218.94862c0.26616,-1.11406 0.55649,-2.21133 1.37114,-2.94449c0.72128,-0.64913 6.11021,-0.49854 7.21169,-0.49561c1.32307,0.2765 2.82031,0.12219 3.98495,0.79057c-2.91126,-3.86294 -1.27223,-12.39613 1.86873,-14.84263c0.73061,-0.56907 1.7182,-0.61888 2.66256,-0.75602l1.27756,-1.70043c0.91545,0.00405 1.84264,-0.13405 2.74635,0.01217c0.49676,0.08038 0.89162,0.83289 1.3614,0.65248c0.47493,-0.18239 0.23553,-1.04668 0.59709,-1.40458c1.02945,-1.01907 2.11822,-2.09253 3.46765,-2.61913c2.54713,-0.994 6.43721,0.43172 8.96918,0.94282c1.30755,0.48872 2.86868,0.5509 3.92265,1.46614c5.30338,4.60532 1.11336,12.19741 -4.81797,12.93794c-0.67912,0.08479 -6.59766,-0.04267 -7.34589,-0.02011c-0.51232,0.01544 -1.21812,-0.22279 -1.52626,0.18678c-0.45215,0.60098 0.19239,1.66551 -0.29697,2.23659c-2.69623,3.14649 -3.69039,2.74059 -6.86486,3.50526c-1.30165,0.31354 -2.6308,1.473 -3.88737,1.01079c-0.23621,-0.08688 -0.4596,-0.1905 -0.67057,-0.30949c0.51167,0.63557 0.91662,1.37186 1.21728,2.11177c0.35569,0.87534 -0.41097,1.95582 -0.06201,2.83386c0.31977,0.80462 1.49867,1.007 1.89449,1.77706c2.14968,4.18224 0.83818,10.79655 -3.91361,12.55136c-1.53159,0.56561 -5.2219,-0.07506 -6.74127,-0.41267c-0.51555,-0.11455 -0.97965,-0.63061 -1.49628,-0.52097c-1.47883,0.31381 -2.145,2.24421 -3.5326,2.8442c-3.41459,1.47644 -8.3028,1.45485 -10.63544,-1.94933c-1.01442,-1.48042 -1.26892,-6.93462 -0.45515,-8.2345c0.2442,-0.39008 0.47439,-0.72385 0.69247,-1.00718c-0.28932,-0.21744 -0.54491,-0.47018 -0.74892,-0.77692c-1.39178,-2.09258 0.19428,-7.73821 1.87181,-8.97661c1.07403,-0.79288 2.6673,0.11943 4.00116,0.17444c1.31809,0.05436 2.6486,0.39078 3.87703,0.93645zM258.96464,204.27696c-0.19371,0.32339 -0.45748,0.56312 -0.72044,0.73854c-0.41676,0.60306 -1.18705,1.23207 -2.52398,0.92813c-1.25275,0.96299 -0.91427,3.14682 -0.97022,5.05637c-0.01674,0.57117 -0.0406,1.14478 -0.12829,1.70943c-0.02204,0.14194 -0.31652,0.46266 -0.19671,0.38342c1.37909,-0.91212 4.30544,-1.08102 5.24777,-2.48395c0.52997,-0.78901 -0.00907,-2.13386 0.70303,-2.76341c1.20552,-1.06576 2.89837,-1.4856 4.47374,-1.81322c0.41411,-0.08612 6.68289,-0.00384 7.65411,-0.02011c0.45267,-0.00759 1.00311,0.19515 1.35525,-0.08939c2.74737,-2.21995 1.09727,-3.90316 -1.25057,-4.50653c-1.28775,-0.25485 -4.73403,-1.60601 -6.03082,-1.05718c-1.73976,0.7363 -2.2114,3.33488 -3.93526,3.97628c-1.16097,0.43196 -2.41609,0.18277 -3.67762,-0.05839z" fill="#827d83" stroke-width="0.5"/><path d="M262.60794,204.299c1.72386,-0.6414 2.24308,-3.25183 3.98284,-3.98813c1.29678,-0.54883 4.77123,0.82253 6.05898,1.07738c2.34784,0.60337 4.00635,2.31047 1.25898,4.53043c-0.35214,0.28454 -1.00223,0.09017 -1.45489,0.09776c-0.97122,0.01627 -7.19069,-0.02027 -7.6048,0.06585c-1.57537,0.32762 -3.21937,0.68471 -4.42489,1.75047c-0.71209,0.62955 -0.18164,1.95683 -0.71161,2.74584c-0.94233,1.40293 -3.95101,1.6284 -5.33009,2.54051c-0.11981,0.07924 0.17418,-0.24228 0.19622,-0.38423c0.08768,-0.56465 0.10865,-1.14398 0.12539,-1.71515c0.05596,-1.90955 -0.28643,-4.11706 0.96632,-5.08005c1.33692,0.30394 2.10856,-0.33325 2.52532,-0.93631c0.26295,-0.17542 0.52891,-0.42185 0.72262,-0.74524c1.26153,0.24116 2.52865,0.47283 3.68962,0.04087z" data-paper-data="{&quot;noHover&quot;:false,&quot;origItem&quot;:[&quot;Path&quot;,{&quot;applyMatrix&quot;:true,&quot;segments&quot;:[[[517.92927,408.55392],[2.52306,0.48233],[-0.38741,0.64678]],[[516.4884,410.03101],[0.52591,-0.35084],[-0.83351,1.20612]],[[511.44044,411.88726],[2.67385,0.60788],[-2.50549,1.92597]],[[509.5,422],[0.11191,-3.8191],[-0.03347,1.14233]],[[509.24342,425.41886],[0.17537,-1.12929],[-0.04408,0.28389]],[[508.85001,426.1857],[-0.23962,0.15848],[2.75817,-1.82424]],[[519.34556,421.2178],[-1.88466,2.80586],[1.05994,-1.57802]],[[520.75161,415.69099],[-1.42419,1.25909],[2.41104,-2.13152]],[[529.69909,412.06456],[-3.15074,0.65523],[0.82822,-0.17224]],[[545.00731,412.02433],[-1.94244,0.03254],[0.90533,-0.01517]],[[547.7178,411.84556],[-0.70428,0.56908],[5.49474,-4.4399]],[[545.21666,402.8325],[4.69568,1.20674],[-2.5755,-0.5097]],[[533.15503,400.71814],[2.59357,-1.09766],[-3.47951,1.47261]],[[525.28451,408.67071],[3.44772,-1.28281],[-2.32194,0.86393]]],&quot;closed&quot;:true}]}" fill="#524f53" stroke-width="0.5"/><path d="M219.32141,243.04069c2.50818,-1.48 5.37801,-1.87674 7.99876,1.05774c0.82292,0.92143 -0.6826,3.55511 0.54787,3.6655c4.89586,0.4392 9.92076,-0.62448 11.33686,5.7633c0.27944,1.26048 0.24133,2.60253 0.01283,3.87323c-1.37941,7.67107 -11.91523,9.40327 -17.78205,5.22617c-0.26225,-0.18671 -0.52956,-0.3772 -0.7961,-0.57341c-0.16662,0.56943 -0.37796,1.11885 -0.68538,1.62643c-0.71275,1.17681 -1.92657,1.96465 -2.88985,2.94698c-3.92674,1.3455 -10.07719,3.24313 -13.06012,-1.52824c-0.69966,-1.11913 1.0689,-7.16343 1.30669,-8.14685c0.05227,-0.21617 0.78158,-2.52894 0.32408,-3.1186c-0.55734,-0.71833 -1.74988,-0.88492 -2.12106,-1.7149c-1.19465,-2.67129 -0.22707,-7.42618 1.05666,-9.84285c2.30294,-4.33537 8.64031,-11.46716 14.08696,-6.39112c1.01403,0.94503 0.47745,2.7346 0.59245,4.11594c0.08417,1.01105 0.08953,2.02539 0.0714,3.04069z" fill="#827d83" stroke-width="0.5"/></g></g></svg>